<svg width="820" height="820" viewBox="0 0 820 820" fill="none" xmlns="http://www.w3.org/2000/svg">
  <circle cx="410" cy="410" r="330" stroke="white" stroke-opacity="0.22" stroke-width="4"/>
  <circle cx="410" cy="410" r="250" stroke="white" stroke-opacity="0.14" stroke-width="2" stroke-dasharray="8 10"/>

  <ellipse cx="410" cy="455" rx="128" ry="165" fill="white" fill-opacity="0.12"/>
  <ellipse cx="410" cy="475" rx="82" ry="115" fill="white" fill-opacity="0.2"/>

  <ellipse cx="360" cy="338" rx="16" ry="20" fill="white" fill-opacity="0.22"/>
  <ellipse cx="460" cy="338" rx="16" ry="20" fill="white" fill-opacity="0.22"/>
  <circle cx="360" cy="342" r="6" fill="white" fill-opacity="0.3"/>
  <circle cx="460" cy="342" r="6" fill="white" fill-opacity="0.3"/>

  <path d="M410 360C390 360 373 372 373 389C373 403 387 414 410 414C433 414 447 403 447 389C447 372 430 360 410 360Z" fill="white" fill-opacity="0.16"/>
  <path d="M395 389L410 407L425 389H395Z" fill="white" fill-opacity="0.28"/>

  <ellipse cx="323" cy="498" rx="34" ry="78" fill="white" fill-opacity="0.1" transform="rotate(14 323 498)"/>
  <ellipse cx="497" cy="498" rx="34" ry="78" fill="white" fill-opacity="0.1" transform="rotate(-14 497 498)"/>

  <ellipse cx="360" cy="612" rx="44" ry="25" fill="white" fill-opacity="0.2"/>
  <ellipse cx="460" cy="612" rx="44" ry="25" fill="white" fill-opacity="0.2"/>

  <path d="M168 648H652" stroke="white" stroke-opacity="0.16" stroke-width="3" stroke-linecap="round"/>
</svg>
